<svg xmlns="http://www.w3.org/2000/svg" viewBox="-80.47 -723.05 1179.32 832.71" width="1179.32" height="832.71"><path d="M477.05-208.50L522.46-197.75Q521.48-178.22 519.78-150.15Q518.07-122.07 516.11-92.53Q514.16-62.99 512.45-38.09Q510.74-13.18 509.77 0L509.77 0L39.55 0L19.53-25.88L218.26-295.41L29.79-589.36L29.79-615.23L397.95-615.23Q425.29-615.23 448.97-616.21Q472.66-617.19 501.95-623.05L501.95-623.05L503.91-446.78L457.03-436.04Q445.31-484.38 433.59-508.06Q421.88-531.74 411.38-539.31Q400.88-546.88 391.11-546.88L391.11-546.88L199.22-546.88L336.43-329.10L173.34-102.54L402.83-102.54Q423.34-102.54 435.30-111.33Q447.27-120.12 456.30-143.07Q465.33-166.02 477.05-208.50L477.05-208.50Z" fill="#111110"></path><path d="M753.93 9.67L753.93 9.67Q700.75 9.67 669.17-28.84Q637.59-67.35 637.59-132.77L637.59-132.77Q637.59-179.50 657.57-219.62Q677.55-259.75 712.51-284.56Q747.48-309.38 792.28-309.38L792.28-309.38Q821.92-309.38 846.90-294.39Q871.88-279.40 884.12-247.82L884.12-247.82Q887.67-259.10 889.76-268.93Q891.86-278.76 893.47-295.20L893.47-295.20Q902.81-295.52 920.21-297.77Q937.62-300.03 955.34-303.25Q973.07-306.47 983.06-309.38L983.06-309.38Q984.67-306.15 987.89-297.29Q991.11-288.43 992.08-285.21L992.08-285.21Q975-277.15 964.04-268.77Q953.09-260.39 944.71-248.31Q936.33-236.22 927.79-216.72Q919.25-197.23 907.00-166.61L907.00-166.61Q915.38-117.63 923.76-92.81Q932.14-68.00 940.20-59.78Q948.25-51.56 955.02-51.56L955.02-51.56Q960.18-51.56 970.33-53.66Q980.48-55.75 992.08-60.26L992.08-60.26Q992.72-57.36 995.14-47.70Q997.56-38.03 998.85-32.87L998.85-32.87Q984.02-21.91 965.33-12.25Q946.64-2.58 929.40 3.54Q912.16 9.67 901.52 9.67L901.52 9.67Q892.82 9.67 884.93 5.80Q877.03 1.93 870.59-13.54Q864.14-29.00 859.63-63.81L859.63-63.81Q832.88-20.63 803.39-5.48Q773.91 9.67 753.93 9.67ZM775.52-50.92L775.52-50.92Q790.66-50.92 803.39-62.68Q816.12-74.44 826.27-93.46Q836.43-112.47 844.16-134.06L844.16-134.06Q834.81-200.45 813.06-233.16Q791.31-265.87 772.29-265.87L772.29-265.87Q761.02-265.87 749.09-254.91Q737.17-243.96 729.27-220.43Q721.38-196.90 721.38-158.88L721.38-158.88Q721.38-133.42 727.82-108.44Q734.27-83.47 746.51-67.19Q758.76-50.92 775.52-50.92Z" fill="#125862"></path></svg>